Land_normalized_Motion_pl05
version=1
nRows=14
nColumns=43
inDegrees=yes
endheader
time		pelvis_tilt		pelvis_list		pelvis_rotation		pelvis_tx		pelvis_ty		pelvis_tz		hip_flexion_r		hip_adduction_r		hip_rotation_r		knee_angle_r		ankle_angle_r		subtalar_angle_r		mtp_angle_r		hip_flexion_l		hip_adduction_l		hip_rotation_l		knee_angle_l		ankle_angle_l		subtalar_angle_l		mtp_angle_l		lumbar_extension		lumbar_bending		lumbar_rotation		neck_flexion		neck_lateral_bending		neck_rotation		arm_flex_r		arm_add_r		arm_rot_r		elbow_flex_r		pro_sup_r		wrist_flex_r		wrist_dev_r		hand_finger_flex_r		arm_flex_l		arm_add_l		arm_rot_l		elbow_flex_l		pro_sup_l		wrist_flex_l		wrist_dev_l		hand_finger_flex_l		
3.564091		-4.037218		1.841089		97.352033		-0.009859		0.533227		0.472367		81.024680		-6.781275		2.246525		-118.125898		2.989295		-12.699077		14.135297		80.231721		3.422096		-0.049775		-115.340757		0.788619		1.197098		32.687462		-65.804542		-2.125196		2.119570		13.018378		11.128780		-9.208786		43.900240		-29.586681		-6.982152		63.128285		118.383265		-17.550681		-8.124909		-32.917554		32.208582		-26.977662		1.307566		79.019797		132.646467		-37.013527		-12.098891		-6.371380		
3.567273		-3.959075		1.447905		97.499482		-0.009309		0.529610		0.472358		81.774847		-6.978627		2.053051		-118.566622		3.162596		-12.843768		14.123829		81.006533		3.234406		-0.153677		-115.742105		1.070355		1.162521		32.779387		-66.014125		-1.963747		1.837809		13.387884		11.073880		-9.045221		46.464895		-29.689595		-5.962821		63.376822		118.166953		-17.226043		-8.114438		-32.942743		35.346042		-27.416971		2.680281		79.175312		132.770324		-36.427022		-12.016553		-6.161394		
3.570455		-3.909017		1.027357		97.744812		-0.008930		0.525919		0.472394		82.555272		-7.360604		1.861305		-119.013744		3.368182		-12.940391		14.109100		81.831033		3.140911		-0.315854		-116.139634		1.332024		1.283948		32.978441		-66.146016		-1.767544		1.635196		13.441221		11.213895		-8.847213		48.820446		-30.118788		-4.697081		63.714471		117.154562		-17.100020		-8.110628		-33.076052		38.759359		-28.083369		4.863234		79.287176		132.104288		-35.912131		-11.465128		-5.851371		
3.573636		-3.820067		0.661872		97.828924		-0.008348		0.522465		0.472315		83.261799		-7.606026		1.658234		-119.430360		3.687951		-12.774488		14.113372		82.553004		2.860431		-0.440829		-116.545633		1.613478		1.378191		33.092376		-66.331896		-1.665466		1.451755		13.664456		11.221508		-8.695412		51.288632		-30.285171		-3.652835		63.909013		116.862345		-16.784538		-8.192907		-33.046156		42.036812		-28.507310		6.491054		79.273656		132.085279		-35.234321		-11.526245		-5.687150		
3.576818		-3.722256		0.299658		97.902253		-0.007747		0.519076		0.472232		83.946620		-7.864540		1.468397		-119.825014		4.043097		-12.518527		14.121567		83.266644		2.536370		-0.573752		-116.942139		1.896360		1.516582		33.218471		-66.492488		-1.565159		1.299207		13.852466		11.242927		-8.557865		53.722856		-30.416237		-2.628409		64.067459		116.501791		-16.495584		-8.288417		-33.012438		45.347541		-28.905671		8.181716		79.182222		132.053523		-34.551031		-11.603483		-5.552522		
3.580000		-3.629670		0.025897		97.911473		-0.007027		0.515922		0.472120		84.518565		-8.082271		1.325031		-120.203920		4.660922		-11.704398		14.155744		83.863700		2.065359		-0.723161		-117.344386		2.195813		1.957460		33.410998		-66.693993		-1.559295		1.290127		13.822525		11.395128		-8.432680		56.072064		-30.679003		-1.598554		64.115433		115.903923		-16.299460		-8.602715		-32.933933		48.881678		-29.200177		10.160589		78.837970		131.972955		-33.831442		-11.737400		-5.627805		
3.583182		-3.489527		-0.346712		97.894875		-0.006289		0.512802		0.472075		85.161100		-8.279448		1.177342		-120.529412		5.096381		-11.204860		14.181445		84.565835		1.574899		-0.821850		-117.709991		2.484891		2.144164		33.498896		-66.823556		-1.499871		1.154088		14.135810		11.311427		-8.329952		58.558809		-30.582462		-0.702038		64.117758		115.973387		-15.932425		-8.740899		-32.804866		52.088360		-29.402086		11.436059		78.567095		132.678991		-33.101715		-12.148931		-5.642946		
3.586364		-3.357910		-0.665474		97.851630		-0.005494		0.509790		0.472074		85.730844		-8.446395		1.102313		-120.853492		5.750715		-10.198327		14.231353		85.221668		0.987536		-0.938219		-118.075718		2.764791		2.604616		33.653470		-66.958284		-1.501481		1.137321		14.240878		11.354831		-8.224016		60.953577		-30.635120		0.233856		64.034583		115.808916		-15.679013		-9.030150		-32.648980		55.465810		-29.503435		12.958835		78.088251		133.410239		-32.408648		-12.510103		-5.804682		
3.589545		-3.233372		-1.034259		97.790129		-0.004682		0.506813		0.472161		86.340650		-8.605454		1.093364		-121.153936		6.498639		-8.873859		14.299304		85.934427		0.353933		-1.069086		-118.408264		3.000185		3.138072		33.813759		-67.038621		-1.534457		1.114562		14.349959		11.410209		-8.126276		63.336788		-30.644157		1.136335		63.898797		115.782250		-15.475633		-9.277837		-32.464656		58.796199		-29.466375		14.327176		77.513580		134.526806		-31.869178		-12.865840		-6.000814		
3.592727		-3.123893		-1.467809		97.765417		-0.003976		0.503855		0.472362		87.001801		-8.789246		1.190052		-121.454361		7.261127		-7.521730		14.393487		86.719381		-0.240530		-1.227317		-118.701974		3.264073		3.575079		34.027768		-67.059537		-1.546234		1.065904		14.578423		11.461891		-8.098377		65.703413		-30.648203		2.039357		63.747848		115.840999		-15.339357		-9.397185		-32.229274		62.104843		-29.379727		15.667319		76.875246		135.743723		-31.467481		-13.220159		-6.198828		
3.595909		-2.961772		-1.952999		97.762313		-0.003314		0.500775		0.472704		87.735662		-8.923416		1.340001		-121.733267		7.845585		-6.430234		14.451095		87.589306		-0.813531		-1.301025		-118.985596		3.489030		3.884505		34.130829		-66.998536		-1.493271		0.978059		14.881325		11.415965		-8.007972		68.125252		-30.468828		2.875473		63.512757		116.173680		-15.036239		-9.329590		-32.077269		65.243023		-29.311667		16.813976		76.292863		136.872155		-31.001349		-13.577027		-6.227938		
3.599091		-2.894152		-2.442912		97.696622		-0.002665		0.497768		0.472991		88.487636		-9.052431		1.669383		-122.040594		8.834053		-4.316043		14.579515		88.411352		-1.464046		-1.493424		-119.242062		3.740639		4.512498		34.356083		-66.913359		-1.584398		0.944738		15.028548		11.575400		-7.996262		70.391809		-30.441532		3.683019		63.261902		116.414476		-14.982852		-9.287369		-31.903139		68.499747		-29.046634		18.217975		75.437301		138.094774		-30.987721		-13.836500		-6.454440		
3.602273		-2.744800		-2.936515		97.681169		-0.002089		0.494760		0.473291		89.216582		-9.194385		1.960064		-122.319364		9.444082		-3.077958		14.659836		89.256857		-2.039823		-1.542547		-119.504985		4.036563		4.849916		34.489746		-66.824053		-1.554473		0.882928		15.341979		11.563762		-7.974657		72.714350		-30.308619		4.507425		63.007276		116.832830		-14.701509		-9.164840		-31.766974		71.576983		-28.941596		19.430695		74.760481		139.074454		-30.648604		-14.217639		-6.498603		
3.605455		-2.709652		-3.381203		97.528105		-0.001211		0.491931		0.473453		89.916085		-9.259498		2.368515		-122.639195		10.543997		-0.607614		14.803476		89.914411		-2.709627		-1.602243		-119.713613		4.500580		5.733693		34.699127		-66.744278		-1.760649		0.864068		15.545701		11.729966		-8.006953		74.883047		-30.161863		5.177473		62.654695		117.133360		-14.619685		-9.041118		-31.741378		74.711574		-28.528557		20.812601		73.741744		139.748346		-30.727993		-14.440713		-6.838498		
